REM DIRINDEX 1\2,1\3\5,1\3\6,1\4\7,1\4\8
REM DIRNAME folder01,folder02,folder03,folder04,folder05,folder06,folder07,folder08
TITLE ""
FILE "JE_23.mp3" MP3
  TRACK 01 AUDIO
    TITLE "0:"
    INDEX 01 00:00:00
  TRACK 02 AUDIO
    TITLE "7:cjc139_4133"
    INDEX 01 00:00:19
  TRACK 03 AUDIO
    TITLE "0:"
    INDEX 01 00:01:71
  TRACK 04 AUDIO
    TITLE "8:cjc139_4134"
    INDEX 01 00:04:54
  TRACK 05 AUDIO
    TITLE "0:"
    INDEX 01 00:06:55
  TRACK 06 AUDIO
    TITLE "7:cjc139_4135"
    INDEX 01 00:09:42
  TRACK 07 AUDIO
    TITLE "0:"
    INDEX 01 00:11:46
  TRACK 08 AUDIO
    TITLE "8:cjc139_4136"
    INDEX 01 00:14:31
  TRACK 09 AUDIO
    TITLE "0:"
    INDEX 01 00:16:63
  TRACK 10 AUDIO
    TITLE "7:cjc139_4137"
    INDEX 01 00:19:48
  TRACK 11 AUDIO
    TITLE "0:"
    INDEX 01 00:22:11
  TRACK 12 AUDIO
    TITLE "8:cjc139_4138"
    INDEX 01 00:24:69
  TRACK 13 AUDIO
    TITLE "0:"
    INDEX 01 00:27:30
  TRACK 14 AUDIO
    TITLE "7:cjc139_4139"
    INDEX 01 00:30:16
  TRACK 15 AUDIO
    TITLE "0:"
    INDEX 01 00:33:66
  TRACK 16 AUDIO
    TITLE "8:cjc139_4140"
    INDEX 01 00:36:50
  TRACK 17 AUDIO
    TITLE "0:"
    INDEX 01 00:39:62
  TRACK 18 AUDIO
    TITLE "7:cjc139_4141"
    INDEX 01 00:42:47
  TRACK 19 AUDIO
    TITLE "0:"
    INDEX 01 00:44:54
  TRACK 20 AUDIO
    TITLE "8:cjc139_4142"
    INDEX 01 00:47:40
  TRACK 21 AUDIO
    TITLE "0:"
    INDEX 01 00:49:53
  TRACK 22 AUDIO
    TITLE "7:cjc139_4143"
    INDEX 01 00:52:37
  TRACK 23 AUDIO
    TITLE "0:"
    INDEX 01 00:54:40
  TRACK 24 AUDIO
    TITLE "8:cjc139_4144"
    INDEX 01 00:57:25
  TRACK 25 AUDIO
    TITLE "0:"
    INDEX 01 00:59:67
  TRACK 26 AUDIO
    TITLE "7:cjc139_4145"
    INDEX 01 01:02:55
  TRACK 27 AUDIO
    TITLE "0:"
    INDEX 01 01:05:07
  TRACK 28 AUDIO
    TITLE "8:cjc139_4146"
    INDEX 01 01:07:68
  TRACK 29 AUDIO
    TITLE "0:"
    INDEX 01 01:10:35
  TRACK 30 AUDIO
    TITLE "7:cjc139_4147"
    INDEX 01 01:13:20
  TRACK 31 AUDIO
    TITLE "0:"
    INDEX 01 01:16:09
  TRACK 32 AUDIO
    TITLE "8:cjc139_4148"
    INDEX 01 01:18:68
  TRACK 33 AUDIO
    TITLE "0:"
    INDEX 01 01:21:69
  TRACK 34 AUDIO
    TITLE "7:cjc139_4149"
    INDEX 01 01:24:53
  TRACK 35 AUDIO
    TITLE "0:"
    INDEX 01 01:26:56
  TRACK 36 AUDIO
    TITLE "8:cjc139_4150"
    INDEX 01 01:29:43
  TRACK 37 AUDIO
    TITLE "0:"
    INDEX 01 01:31:67
  TRACK 38 AUDIO
    TITLE "7:cjc139_4151"
    INDEX 01 01:34:50
  TRACK 39 AUDIO
    TITLE "0:"
    INDEX 01 01:36:56
  TRACK 40 AUDIO
    TITLE "8:cjc139_4152"
    INDEX 01 01:39:41
  TRACK 41 AUDIO
    TITLE "0:"
    INDEX 01 01:42:16
  TRACK 42 AUDIO
    TITLE "7:cjc139_4153"
    INDEX 01 01:45:02
  TRACK 43 AUDIO
    TITLE "0:"
    INDEX 01 01:47:56
  TRACK 44 AUDIO
    TITLE "8:cjc139_4154"
    INDEX 01 01:50:43
  TRACK 45 AUDIO
    TITLE "0:"
    INDEX 01 01:53:02
  TRACK 46 AUDIO
    TITLE "7:cjc139_4155"
    INDEX 01 01:55:62
  TRACK 47 AUDIO
    TITLE "0:"
    INDEX 01 01:58:29
  TRACK 48 AUDIO
    TITLE "8:cjc139_4156"
    INDEX 01 02:01:11
  TRACK 49 AUDIO
    TITLE "0:"
    INDEX 01 02:03:43
  TRACK 50 AUDIO
    TITLE "7:cjc139_4157"
    INDEX 01 02:06:28
  TRACK 51 AUDIO
    TITLE "0:"
    INDEX 01 02:09:21
  TRACK 52 AUDIO
    TITLE "8:cjc139_4158"
    INDEX 01 02:12:05
  TRACK 53 AUDIO
    TITLE "0:"
    INDEX 01 02:15:07
  TRACK 54 AUDIO
    TITLE "7:cjc139_4159"
    INDEX 01 02:17:67
  TRACK 55 AUDIO
    TITLE "0:"
    INDEX 01 02:21:08
  TRACK 56 AUDIO
    TITLE "8:cjc139_4160"
    INDEX 01 02:23:68
  TRACK 57 AUDIO
    TITLE "0:"
    INDEX 01 02:26:35
  TRACK 58 AUDIO
    TITLE "7:cjc139_4161"
    INDEX 01 02:29:21
  TRACK 59 AUDIO
    TITLE "0:"
    INDEX 01 02:32:04
  TRACK 60 AUDIO
    TITLE "8:cjc139_4162"
    INDEX 01 02:34:62
  TRACK 61 AUDIO
    TITLE "0:"
    INDEX 01 02:37:42
  TRACK 62 AUDIO
    TITLE "7:cjc139_4163"
    INDEX 01 02:40:27
  TRACK 63 AUDIO
    TITLE "0:"
    INDEX 01 02:43:49
  TRACK 64 AUDIO
    TITLE "8:cjc139_4164"
    INDEX 01 02:46:31
  TRACK 65 AUDIO
    TITLE "0:"
    INDEX 01 02:49:40
  TRACK 66 AUDIO
    TITLE "7:cjc139_4165"
    INDEX 01 02:52:26
  TRACK 67 AUDIO
    TITLE "0:"
    INDEX 01 02:55:13
  TRACK 68 AUDIO
    TITLE "8:cjc139_4166"
    INDEX 01 02:57:74
  TRACK 69 AUDIO
    TITLE "0:"
    INDEX 01 03:00:32
  TRACK 70 AUDIO
    TITLE "7:cjc139_4167"
    INDEX 01 03:03:20
  TRACK 71 AUDIO
    TITLE "0:"
    INDEX 01 03:06:22
  TRACK 72 AUDIO
    TITLE "8:cjc139_4168"
    INDEX 01 03:09:05
  TRACK 73 AUDIO
    TITLE "0:"
    INDEX 01 03:11:45
  TRACK 74 AUDIO
    TITLE "7:cjc139_4169"
    INDEX 01 03:14:28
  TRACK 75 AUDIO
    TITLE "0:"
    INDEX 01 03:15:53
  TRACK 76 AUDIO
    TITLE "8:cjc139_4170"
    INDEX 01 03:18:37
  TRACK 77 AUDIO
    TITLE "0:"
    INDEX 01 03:19:72
  TRACK 78 AUDIO
    TITLE "7:cjc139_4171"
    INDEX 01 03:22:59
  TRACK 79 AUDIO
    TITLE "0:"
    INDEX 01 03:24:71
  TRACK 80 AUDIO
    TITLE "8:cjc139_4172"
    INDEX 01 03:27:54
  TRACK 81 AUDIO
    TITLE "0:"
    INDEX 01 03:29:74
  TRACK 82 AUDIO
    TITLE "7:cjc139_4173"
    INDEX 01 03:32:61
  TRACK 83 AUDIO
    TITLE "0:"
    INDEX 01 03:35:20
  TRACK 84 AUDIO
    TITLE "8:cjc139_4174"
    INDEX 01 03:38:05
  TRACK 85 AUDIO
    TITLE "0:"
    INDEX 01 03:40:10
  TRACK 86 AUDIO
    TITLE "7:cjc139_4175"
    INDEX 01 03:42:71
  TRACK 87 AUDIO
    TITLE "0:"
    INDEX 01 03:44:35
  TRACK 88 AUDIO
    TITLE "8:cjc139_4176"
    INDEX 01 03:47:19
  TRACK 89 AUDIO
    TITLE "0:"
    INDEX 01 03:49:28
  TRACK 90 AUDIO
    TITLE "7:cjc139_4177"
    INDEX 01 03:52:15
  TRACK 91 AUDIO
    TITLE "0:"
    INDEX 01 03:53:69
  TRACK 92 AUDIO
    TITLE "8:cjc139_4178"
    INDEX 01 03:56:56
  TRACK 93 AUDIO
    TITLE "0:"
    INDEX 01 03:58:64
  TRACK 94 AUDIO
    TITLE "7:cjc139_4179"
    INDEX 01 04:01:49
  TRACK 95 AUDIO
    TITLE "0:"
    INDEX 01 04:03:48
  TRACK 96 AUDIO
    TITLE "8:cjc139_4180"
    INDEX 01 04:06:34
  TRACK 97 AUDIO
    TITLE "0:"
    INDEX 01 04:08:12
  TRACK 98 AUDIO
    TITLE "7:cjc139_4181"
    INDEX 01 04:10:73
  TRACK 99 AUDIO
    TITLE "0:"
    INDEX 01 04:13:50
  TRACK 100 AUDIO
    TITLE "8:cjc139_4182"
    INDEX 01 04:16:33
  TRACK 101 AUDIO
    TITLE "0:"
    INDEX 01 04:18:73
  TRACK 102 AUDIO
    TITLE "7:cjc139_4183"
    INDEX 01 04:21:61
  TRACK 103 AUDIO
    TITLE "0:"
    INDEX 01 04:23:51
  TRACK 104 AUDIO
    TITLE "8:cjc139_4184"
    INDEX 01 04:26:35
  TRACK 105 AUDIO
    TITLE "0:"
    INDEX 01 04:28:22
  TRACK 106 AUDIO
    TITLE "7:cjc139_4185"
    INDEX 01 04:31:09
  TRACK 107 AUDIO
    TITLE "0:"
    INDEX 01 04:33:55
  TRACK 108 AUDIO
    TITLE "8:cjc139_4186"
    INDEX 01 04:36:41
  TRACK 109 AUDIO
    TITLE "0:"
    INDEX 01 04:38:44
  TRACK 110 AUDIO
    TITLE "7:cjc139_4187"
    INDEX 01 04:41:27
  TRACK 111 AUDIO
    TITLE "0:"
    INDEX 01 04:43:59
  TRACK 112 AUDIO
    TITLE "8:cjc139_4188"
    INDEX 01 04:46:44
  TRACK 113 AUDIO
    TITLE "0:"
    INDEX 01 04:49:22
  TRACK 114 AUDIO
    TITLE "7:cjc139_4189"
    INDEX 01 04:52:07
  TRACK 115 AUDIO
    TITLE "0:"
    INDEX 01 04:54:31
  TRACK 116 AUDIO
    TITLE "8:cjc139_4190"
    INDEX 01 04:57:16
  TRACK 117 AUDIO
    TITLE "0:"
    INDEX 01 04:59:58
  TRACK 118 AUDIO
    TITLE "7:cjc139_4191"
    INDEX 01 05:02:43
  TRACK 119 AUDIO
    TITLE "0:"
    INDEX 01 05:05:02
  TRACK 120 AUDIO
    TITLE "8:cjc139_4192"
    INDEX 01 05:07:60
  TRACK 121 AUDIO
    TITLE "0:"
    INDEX 01 05:10:11
  TRACK 122 AUDIO
    TITLE "7:cjc139_4193"
    INDEX 01 05:12:71
  TRACK 123 AUDIO
    TITLE "0:"
    INDEX 01 05:15:08
  TRACK 124 AUDIO
    TITLE "8:cjc139_4194"
    INDEX 01 05:17:66
  TRACK 125 AUDIO
    TITLE "0:"
    INDEX 01 05:19:59
  TRACK 126 AUDIO
    TITLE "7:cjc139_4195"
    INDEX 01 05:22:45
  TRACK 127 AUDIO
    TITLE "0:"
    INDEX 01 05:24:44
  TRACK 128 AUDIO
    TITLE "8:cjc139_4196"
    INDEX 01 05:27:27
  TRACK 129 AUDIO
    TITLE "0:"
    INDEX 01 05:29:22
  TRACK 130 AUDIO
    TITLE "7:cjc139_4197"
    INDEX 01 05:32:09
  TRACK 131 AUDIO
    TITLE "0:"
    INDEX 01 05:34:27
  TRACK 132 AUDIO
    TITLE "8:cjc139_4198"
    INDEX 01 05:37:10
  TRACK 133 AUDIO
    TITLE "0:"
    INDEX 01 05:39:36
  TRACK 134 AUDIO
    TITLE "7:cjc139_4199"
    INDEX 01 05:42:21
  TRACK 135 AUDIO
    TITLE "0:"
    INDEX 01 05:44:47
  TRACK 136 AUDIO
    TITLE "8:cjc139_4200"
    INDEX 01 05:47:30
  TRACK 137 AUDIO
    TITLE "0:"
    INDEX 01 05:49:62
  TRACK 138 AUDIO
    TITLE "7:cjc139_4201"
    INDEX 01 05:52:50
  TRACK 139 AUDIO
    TITLE "0:"
    INDEX 01 05:54:71
  TRACK 140 AUDIO
    TITLE "8:cjc139_4202"
    INDEX 01 05:57:56
  TRACK 141 AUDIO
    TITLE "0:"
    INDEX 01 05:59:68
  TRACK 142 AUDIO
    TITLE "7:cjc139_4203"
    INDEX 01 06:02:55
  TRACK 143 AUDIO
    TITLE "0:"
    INDEX 01 06:05:49
  TRACK 144 AUDIO
    TITLE "8:cjc139_4204"
    INDEX 01 06:08:38
  TRACK 145 AUDIO
    TITLE "0:"
    INDEX 01 06:11:13
  TRACK 146 AUDIO
    TITLE "7:cjc139_4205"
    INDEX 01 06:13:74
  TRACK 147 AUDIO
    TITLE "0:"
    INDEX 01 06:16:18
  TRACK 148 AUDIO
    TITLE "8:cjc139_4206"
    INDEX 01 06:19:04
  TRACK 149 AUDIO
    TITLE "0:"
    INDEX 01 06:21:44
  TRACK 150 AUDIO
    TITLE "7:cjc139_4207"
    INDEX 01 06:24:31
  TRACK 151 AUDIO
    TITLE "0:"
    INDEX 01 06:27:06
  TRACK 152 AUDIO
    TITLE "8:cjc139_4208"
    INDEX 01 06:29:67
  TRACK 153 AUDIO
    TITLE "0:"
    INDEX 01 06:32:58
  TRACK 154 AUDIO
    TITLE "7:cjc139_4209"
    INDEX 01 06:35:44
  TRACK 155 AUDIO
    TITLE "0:"
    INDEX 01 06:37:37
  TRACK 156 AUDIO
    TITLE "8:cjc139_4210"
    INDEX 01 06:40:20
  TRACK 157 AUDIO
    TITLE "0:"
    INDEX 01 06:42:66
  TRACK 158 AUDIO
    TITLE "7:cjc139_4211"
    INDEX 01 06:45:51
  TRACK 159 AUDIO
    TITLE "0:"
    INDEX 01 06:49:29
  TRACK 160 AUDIO
    TITLE "8:cjc139_4212"
    INDEX 01 06:52:17
  TRACK 161 AUDIO
    TITLE "0:"
    INDEX 01 06:55:59
  TRACK 162 AUDIO
    TITLE "7:cjc139_4213"
    INDEX 01 06:58:43
  TRACK 163 AUDIO
    TITLE "0:"
    INDEX 01 07:02:24
  TRACK 164 AUDIO
    TITLE "8:cjc139_4214"
    INDEX 01 07:05:04
  TRACK 165 AUDIO
    TITLE "0:"
    INDEX 01 07:08:20
